<?xml version="1.0" standalone="no"?>
<!DOCTYPE svg PUBLIC "-//W3C//DTD SVG 1.1//EN" "http://www.w3.org/Graphics/SVG/1.1/DTD/svg11.dtd">
<svg xmlns="http://www.w3.org/2000/svg">
<defs >
<font id="ReadexPro" horiz-adv-x="596" ><font-face
    font-family="Readex Pro"
    units-per-em="1000"
    panose-1="0 0 0 0 0 0 0 0 0 0"
    ascent="1000"
    descent="-250"
    alphabetic="0" />
<glyph unicode=" " horiz-adv-x="319" />
<glyph unicode="!" horiz-adv-x="307" d="M103 255Q94 317 86 382T73 513T68 638V711H238V638Q238 578 233 512T220 380T203 255H103ZM152 -11Q111 -11 88 12T65 79Q65 118 89 144T152 170Q193 170 216 147T239 79Q239 39 215 14T152 -11Z" />
<glyph unicode="&quot;" horiz-adv-x="478" d="M272 436L292 700H456L372 436H272ZM42 436L62 700H227L143 436H42Z" />
<glyph unicode="#" horiz-adv-x="732" d="M367 0L487 700H629L509 0H367ZM47 149V279H649V149H47ZM105 0L225 700H367L247 0H105ZM85 430V560H686V430H85Z" />
<glyph unicode="$" horiz-adv-x="635" d="M320 -10Q222 -10 151 21T28 110L111 241Q166 182 218 158T328 134Q356 134 377 141T410 161T423 194Q423 209 416 220T395 241T365 258T327 270T286 280Q209 296 158 325T83 399T58 502Q58 566 94 614T191 689T321 716Q407
716 474 690T593 608L519 489Q479 531 430 551T326 571Q297 571 275 564T242 544T230 511Q230 495 239 483T266 461T304 446T350 435Q405 424 450 406T527 362T576 300T594 218Q594 146 559 95T462 17T320 -10ZM259 -91L270 374L352 341L364 -91H259ZM380 339L296
373L285 788H391L380 339Z" />
<glyph unicode="%" horiz-adv-x="964" d="M168 0L631 700H781L313 0H168ZM216 329Q165 329 125 354T63 424T40 525Q40 581 62 625T124 694T216 719Q268 719 307 694T368 625T390 524Q390 469 367 425T305 355T216 329ZM216 433Q232 433 243 444T260 475T266 524Q266
552 260 572T243 604T216 615Q200 615 188 604T170 572T163 524Q163 482 177 458T216 433ZM746 -9Q696 -9 656 16T592 86T569 185Q569 242 591 286T654 355T746 381Q797 381 836 356T897 286T919 185Q919 130 897 86T835 17T746 -9ZM746 94Q762 94 773 105T790
137T796 185Q796 227 783 252T746 277Q730 277 718 266T700 234T693 185Q693 144 707 119T746 94Z" />
<glyph unicode="&amp;" horiz-adv-x="778" d="M581 0L510 75L450 129L304 285Q265 325 239 360T197 425T174 481T167 529Q167 583 195 625T274 691T390 716Q440 716 484 700T560 653T606 582L479 507Q462 548 443 563T396 578Q375 578 360 572T337 552T329 519Q329
499 345 472T385 415T434 359T477 314L551 233L620 171L780 0H581ZM326 -10Q248 -10 186 20T87 102T50 217Q50 291 92 349T220 439L320 340Q263 328 235 301T207 229Q207 196 223 172T269 134T343 120Q382 120 416 136T478 182T522 253T545 346H695Q686 282 664
228T608 129T531 54T436 7T326 -10Z" />
<glyph unicode="&apos;" horiz-adv-x="251" d="M43 436L63 700H229L144 436H43Z" />
<glyph unicode="(" horiz-adv-x="390" d="M289 -186Q167 -110 103 4T39 258Q39 397 103 511T290 702L381 616Q289 552 244 459T198 258Q198 152 243 58T381 -100L289 -186Z" />
<glyph unicode=")" horiz-adv-x="389" d="M99 -186L9 -100Q101 -36 146 58T192 258Q192 365 147 459T9 616L100 702Q222 626 286 512T350 258Q350 119 286 5T99 -186Z" />
<glyph unicode="*" horiz-adv-x="438" d="M165 353L179 487L196 485L71 401L18 493L152 547L151 539L17 599L71 691L198 598L179 597L163 734H278L263 592L247 598L367 690L421 597L285 537V546L420 493L366 402L248 488L264 487L280 353H165Z" />
<glyph unicode="+" horiz-adv-x="597" d="M47 218V348H549V218H47ZM225 40L226 527H371L370 40H225Z" />
<glyph unicode="," horiz-adv-x="288" d="M85 -201L38 -144Q79 -125 103 -97T128 -50Q128 -40 123 -30T101 -6Q78 11 70 27T61 64Q61 96 84 113T142 131Q172 131 195 115T232 71T246 4Q246 -29 234 -61T200 -121T149 -169T85 -201Z" />
<glyph unicode="-" horiz-adv-x="446" d="M52 214V361H396V214H52Z" />
<glyph unicode="." horiz-adv-x="256" d="M128 -11Q87 -11 65 12T42 79Q42 119 65 144T128 170Q169 170 192 147T215 79Q215 39 191 14T128 -11Z" />
<glyph unicode="/" horiz-adv-x="593" d="M6 -142L423 700H582L167 -142H6Z" />
<glyph unicode="0" horiz-adv-x="672" d="M336 -10Q242 -10 176 33T75 156T40 350Q40 463 75 543T176 667T336 710Q430 710 496 667T597 544T632 350Q632 237 597 157T496 33T336 -10ZM336 135Q400 135 434 191T469 350Q469 457 435 514T336 571Q272 571 237 514T202
350Q202 247 237 191T336 135Z" />
<glyph unicode="1" horiz-adv-x="563" d="M212 50V615L250 531L101 461L71 612L271 710H380V50H212ZM85 0V151H511V0H85Z" />
<glyph unicode="2" horiz-adv-x="548" d="M61 0L27 84L228 306Q246 325 266 349T304 398T334 448T346 491Q346 511 338 526T313 549T270 558Q248 558 227 546T188 511T153 451L27 521Q48 579 86 623T177 692T288 716Q350 716 399 690T478 619T508 512Q508 485
501 456T477 395T433 325T367 245L212 76L191 151H539V0H61Z" />
<glyph unicode="3" horiz-adv-x="589" d="M286 -10Q201 -10 138 25T22 148L146 226Q167 192 190 171T239 141T292 131Q320 131 343 143T380 178T394 231Q394 262 382 282T347 314T291 325Q277 325 260 322T223 312T184 298L147 397L315 582L361 556L71 561V706H501L533
644L302 397L263 444Q271 447 289 450T323 454Q369 454 410 437T483 390T533 320T551 233Q551 163 516 108T420 22T286 -10Z" />
<glyph unicode="4" horiz-adv-x="661" d="M347 0V563L436 560L188 257L165 287H626V146H88L19 278L373 706H512V0H347Z" />
<glyph unicode="5" horiz-adv-x="595" d="M282 -7Q203 -7 139 24T32 116L124 218Q165 172 199 156T276 140Q308 140 333 153T372 189T386 240Q386 270 372 293T333 330T277 344Q255 344 236 341T194 328T140 300L67 398L110 706H512V561H192L235 617L203 398L144
419Q162 435 189 447T248 468T311 476Q378 476 430 446T512 362T543 238Q543 169 509 114T415 26T282 -7Z" />
<glyph unicode="6" horiz-adv-x="577" d="M293 0Q239 0 192 19T109 73T53 154T33 253Q34 301 47 347T86 443T145 548L242 711H399L404 701L269 488Q243 446 224 409T190 335T159 259L127 332Q141 379 174 414T251 470T334 490Q393 490 442 459T521 375T551 261Q551
187 518 128T426 34T293 0ZM295 141Q326 141 350 155T389 194T403 252Q403 280 389 305T350 345T296 360Q264 360 239 346T200 307T186 252Q186 221 200 196T238 156T295 141Z" />
<glyph unicode="7" horiz-adv-x="555" d="M85 0L366 636L412 557H48V706H505L520 624L257 0H85Z" />
<glyph unicode="8" horiz-adv-x="598" d="M298 -3Q227 -3 169 24T75 99T40 205Q40 244 50 275T80 330T129 372T196 402L184 361Q147 376 120 399T78 453T63 520Q63 575 94 618T179 686T298 711Q364 711 417 686T502 618T534 520Q534 484 520 454T479 401T411 361L402
398Q448 386 483 360T538 295T558 205Q558 146 523 99T430 24T298 -3ZM298 132Q326 132 348 143T382 173T395 216Q395 241 383 260T349 291T298 303Q272 303 250 292T215 261T202 216Q202 192 215 173T250 143T298 132ZM298 439Q323 439 342 448T372 474T383 512Q383
534 372 550T342 577T299 587Q274 587 255 577T225 551T214 512Q214 491 225 475T255 449T298 439Z" />
<glyph unicode="9" horiz-adv-x="576" d="M207 0L203 10L423 454L451 391Q438 345 403 309T324 253T240 232Q183 232 135 263T58 346T29 458Q29 531 63 589T157 682T291 717Q344 717 391 698T473 646T529 569T549 475Q549 440 543 406T525 335T495 260T454 173L366
0H207ZM281 368Q312 368 335 381T372 418T386 470Q386 501 373 525T337 563T282 577Q252 577 230 564T195 526T182 470Q182 444 195 421T231 383T281 368Z" />
<glyph unicode=":" horiz-adv-x="256" d="M128 -10Q87 -10 65 13T42 80Q42 120 65 145T128 171Q169 171 192 148T215 80Q215 40 191 15T128 -10ZM128 360Q87 360 65 383T42 450Q42 490 65 515T128 541Q169 541 192 518T215 450Q215 410 191 385T128 360Z" />
<glyph unicode=";" horiz-adv-x="292" d="M89 -201L42 -144Q83 -125 107 -97T132 -50Q132 -40 127 -30T105 -6Q82 11 74 27T65 64Q65 96 88 113T146 131Q176 131 199 115T236 71T250 4Q250 -29 238 -61T204 -121T153 -169T89 -201ZM145 361Q104 361 82 384T59
451Q59 491 82 516T145 542Q186 542 209 519T232 451Q232 411 208 386T145 361Z" />
<glyph unicode="&lt;" horiz-adv-x="527" d="M429 -14L42 208V306L429 528L494 401L154 222V293L494 113L429 -14Z" />
<glyph unicode="=" horiz-adv-x="622" d="M67 325V455H555V325H67ZM67 108V237H555V108H67Z" />
<glyph unicode="&gt;" horiz-adv-x="527" d="M106 -14L40 113L382 293V222L40 401L106 528L494 306V208L106 -14Z" />
<glyph unicode="?" horiz-adv-x="537" d="M196 241L163 371Q200 380 231 392T286 420T323 456T337 503Q337 523 327 537T301 559T266 567Q240 567 216 558T167 529T110 482L28 595Q60 628 98 655T182 698T279 715Q348 715 396 688T471 615T497 510Q497 461 473
420T404 343T294 276L283 241H196ZM159 79Q159 119 183 144T246 170Q287 170 309 147T332 79Q332 39 309 14T246 -11Q205 -11 182 12T159 79Z" />
<glyph unicode="@" horiz-adv-x="964" d="M414 -162Q326 -162 257 -136T140 -61T66 55T40 205Q40 323 81 416T197 575T368 675T577 710Q656 710 720 688T830 623T900 524T925 396Q925 327 906 265T851 154T769 77T668 49Q630 49 600 62T553 99T536 154Q536 171
537 187T540 222L566 201Q550 153 525 119T466 67T393 49Q348 49 312 73T255 139T234 237Q234 285 252 335T304 427T381 495T477 521Q508 521 532 505T571 460T589 393L558 363L587 510H733L674 194Q670 170 682 160T711 150Q738 150 761 169T802 222T830 299T840
391Q840 466 808 519T716 600T570 629Q468 629 386 601T246 518T156 386T125 208Q125 140 144 87T200 -4T292 -60T417 -80Q465 -80 498 -74T562 -54T631 -20L669 -89Q610 -119 568 -134T490 -156T414 -162ZM435 170Q461 170 485 187T527 232T550 293Q553 308 554
320T556 342Q556 362 550 376T531 398T498 406Q467 406 442 383T401 322T386 241Q386 209 399 190T435 170Z" />
<glyph unicode="A" horiz-adv-x="697" d="M0 0L277 700H422L697 0H525L392 355Q385 376 377 400T360 450T345 500T333 545L362 546Q356 521 349 497T334 449T318 402T300 353L168 0H0ZM132 134L186 264H506L560 134H132Z" />
<glyph unicode="B" horiz-adv-x="701" d="M87 0V700H397Q470 700 519 680T595 621T621 527Q621 468 592 428T507 372L506 393Q551 382 585 357T639 295T658 212Q658 159 640 119T588 53T509 13T408 0H87ZM249 143H401Q443 143 466 163T490 220Q490 243 479 259T446
283T396 291H249V143ZM249 420H374Q400 420 418 428T445 452T455 489Q455 521 433 539T367 557H249V420Z" />
<glyph unicode="C" horiz-adv-x="693" d="M405 -10Q326 -10 260 16T145 91T70 206T43 352Q43 430 70 496T148 611T265 687T412 714Q462 714 510 701T599 663T671 601L566 482Q535 516 497 535T411 554Q371 554 336 540T274 499T233 435T218 351Q218 305 232 268T274
204T340 163T426 149Q457 149 485 157T539 182T582 218L665 86Q641 59 600 37T508 3T405 -10Z" />
<glyph unicode="D" horiz-adv-x="772" d="M87 0V700H382Q459 700 523 675T633 603T704 492T729 350Q729 272 704 208T633 98T524 26T382 0H87ZM258 118L236 151H377Q418 151 451 165T507 205T543 268T556 350Q556 395 544 431T508 494T451 535T377 549H233L258 580V118Z" />
<glyph unicode="E" horiz-adv-x="645" d="M87 0V700H575V554H254V146H586V0H87ZM168 286V426H531V286H168Z" />
<glyph unicode="F" horiz-adv-x="618" d="M87 0V700H258V0H87ZM167 268V411H531V268H167ZM167 549V700H571V549H167Z" />
<glyph unicode="G" horiz-adv-x="781" d="M412 -10Q328 -10 261 17T144 93T69 208T43 352Q43 430 71 496T149 611T269 687T422 714Q479 714 530 699T624 658T695 599L590 489Q554 523 513 542T419 562Q376 562 340 547T276 503T233 436T218 352Q218 307 234 269T278
203T345 158T427 142Q458 142 484 151T531 177T563 216T575 265V291L597 257H406V392H735Q737 381 738 362T739 326T740 298Q740 230 716 174T647 76T542 13T412 -10Z" />
<glyph unicode="H" horiz-adv-x="780" d="M522 0V700H693V0H522ZM87 0V700H258V0H87ZM155 272V426H612V272H155Z" />
<glyph unicode="I" horiz-adv-x="555" d="M74 0V144H192V556H74V700H481V556H363V144H481V0H74Z" />
<glyph unicode="J" horiz-adv-x="667" d="M262 -10Q224 -10 191 -2T129 23T79 63T41 116L139 218Q158 191 175 175T209 151T245 144Q269 144 287 155T316 187T326 232V551H197V700H600V551H492V213Q492 162 475 121T426 51T353 6T262 -10Z" />
<glyph unicode="K" horiz-adv-x="742" d="M214 205L170 350L516 700H719L214 205ZM87 0V700H258V0H87ZM537 0L278 342L393 441L737 0H537Z" />
<glyph unicode="L" horiz-adv-x="610" d="M87 0V700H258V151H570V0H87Z" />
<glyph unicode="M" horiz-adv-x="878" d="M87 0V700H240L494 287L386 288L643 700H791V0H625V212Q625 304 629 377T645 522L664 470L471 171H403L214 468L233 522Q245 455 249 384T254 212V0H87Z" />
<glyph unicode="N" horiz-adv-x="808" d="M87 0V700H240L608 201L575 205Q568 261 563 309T557 411T555 533V700H721V0H566L184 514L233 507Q240 446 244 406T250 338T253 285T254 230V0H87Z" />
<glyph unicode="O" horiz-adv-x="810" d="M406 -10Q327 -10 261 17T146 92T70 207T43 353Q43 431 70 497T145 613T260 689T406 716Q484 716 550 689T664 613T740 498T767 352Q767 274 740 208T665 93T550 17T406 -10ZM406 151Q447 151 481 166T540 208T580 272T594
352Q594 396 580 433T541 497T481 540T406 555Q365 555 331 540T271 498T231 433T217 352Q217 294 241 249T308 177T406 151Z" />
<glyph unicode="P" horiz-adv-x="662" d="M87 0V700H390Q456 700 508 670T590 589T620 471Q620 404 590 350T508 265T390 234H258V0H87ZM256 385H367Q389 385 406 395T435 425T446 468Q446 493 435 511T407 539T367 549H256V385Z" />
<glyph unicode="Q" horiz-adv-x="810" d="M614 -111L346 251L472 339L736 -20L614 -111ZM406 -10Q327 -10 261 17T146 92T70 207T43 353Q43 431 70 497T145 613T260 689T406 716Q484 716 550 689T664 613T740 498T767 352Q767 274 740 208T665 93T550 17T406 -10ZM406
151Q447 151 481 166T540 208T580 272T594 352Q594 396 580 433T541 497T481 540T406 555Q365 555 331 540T271 498T231 433T217 352Q217 294 241 249T308 177T406 151Z" />
<glyph unicode="R" horiz-adv-x="704" d="M87 0V700H404Q472 700 526 671T611 592T643 476Q643 410 612 358T526 276T404 245H250V0H87ZM476 0L298 317L473 342L671 -1L476 0ZM250 378H389Q415 378 434 389T464 421T475 467Q475 494 463 514T428 545T374 557H250V378Z" />
<glyph unicode="S" horiz-adv-x="635" d="M320 -10Q216 -10 145 26T22 130L126 247Q175 180 225 157T328 134Q355 134 376 141T410 161T423 194Q423 209 416 221T395 242T365 258T328 271T286 280Q228 292 186 311T115 358T72 421T58 502Q58 566 94 614T191 689T321
716Q423 716 485 684T585 594L479 491Q448 531 409 551T326 571Q297 571 275 564T242 544T230 511Q230 495 239 483T266 461T305 446T351 435Q406 424 450 406T527 362T576 300T594 218Q594 146 559 95T462 17T320 -10Z" />
<glyph unicode="T" horiz-adv-x="655" d="M239 0V549H33V700H623V549H410V0H239Z" />
<glyph unicode="U" horiz-adv-x="764" d="M383 -6Q296 -6 229 29T122 127T83 269V701H255V278Q255 240 272 210T318 163T383 145Q420 145 450 162T497 210T515 278V701H681V269Q681 190 643 128T537 30T383 -6Z" />
<glyph unicode="V" horiz-adv-x="716" d="M285 0L5 700H183L317 347Q329 316 337 292T352 248T365 207T378 160H347Q356 195 364 222T382 278T407 347L536 700H710L429 0H285Z" />
<glyph unicode="W" horiz-adv-x="998" d="M216 0L5 700H179L285 332Q294 300 300 267T310 205T315 160L292 159Q299 197 303 226T313 280T328 332L433 609H570L673 332Q685 299 692 270T704 215T712 164L691 160Q693 179 694 194T697 223T700 253T706 288T717
333L821 700H992L781 0H651L484 402L503 400L350 0H216Z" />
<glyph unicode="X" horiz-adv-x="707" d="M499 0L283 313L4 700H212L424 391L707 0H499ZM-1 0L266 382L403 301L197 0H-1ZM440 324L304 402L499 700H697L440 324Z" />
<glyph unicode="Y" horiz-adv-x="690" d="M269 0V349L276 300L-7 700H187L402 392L315 395L508 700H697L426 289L441 358V0H269Z" />
<glyph unicode="Z" horiz-adv-x="683" d="M60 0V114L434 611L492 544H86V700H614V587L243 89L183 150H625V0H60Z" />
<glyph unicode="[" horiz-adv-x="422" d="M80 -190V700H377V564H228L234 572V-66L224 -54H377V-190H80Z" />
<glyph unicode="\" horiz-adv-x="584" d="M419 -107L21 700H181L582 -107H419Z" />
<glyph unicode="]" horiz-adv-x="422" d="M45 -190V-54H194L188 -62V576L198 564H45V700H342V-190H45Z" />
<glyph unicode="^" horiz-adv-x="592" d="M12 361L231 733H362L580 361H417L256 642L337 644L172 361H12Z" />
<glyph unicode="_" horiz-adv-x="686" d="M40 -192V-62H646V-192H40Z" />
<glyph unicode="`" horiz-adv-x="500" d="M328 584L124 694L198 799L376 658L328 584Z" />
<glyph unicode="a" horiz-adv-x="566" d="M354 0V326Q354 367 332 386T269 406Q230 406 200 392T141 344L45 437Q93 486 155 514T290 542Q357 542 406 522T482 461T509 357V0H354ZM216 -10Q166 -10 126 10T62 65T38 149Q38 190 53 221T97 272T171 303T275 314H436L427
213H279Q258 213 242 210T215 199T199 181T193 157Q193 142 201 131T222 114T254 108Q280 108 303 116T345 141T375 178L403 106Q382 72 353 46T289 5T216 -10Z" />
<glyph unicode="b" horiz-adv-x="658" d="M390 -10Q354 -10 322 0T262 26T218 65T195 111L230 123L221 2H71V740H233V407L200 418Q206 443 223 465T265 504T322 532T386 542Q455 542 508 506T593 408T624 265Q624 185 594 123T510 26T390 -10ZM348 125Q384 125
410 142T452 191T467 265Q467 308 453 339T411 388T348 406Q312 406 285 389T243 340T228 265Q228 223 243 192T285 143T348 125Z" />
<glyph unicode="c" horiz-adv-x="545" d="M304 -10Q227 -10 166 26T69 124T34 265Q34 345 69 407T165 506T304 542Q375 542 434 517T528 447L441 341Q428 358 409 372T367 394T319 402Q281 402 252 385T207 336T191 266Q191 228 207 198T253 149T318 131Q344 131
366 138T406 158T441 189L528 83Q494 41 433 16T304 -10Z" />
<glyph unicode="d" horiz-adv-x="654" d="M273 -10Q205 -10 151 25T65 122T34 265Q34 345 65 407T150 506T274 542Q310 542 343 531T403 501T447 458T468 407L429 398V740H590V0H440L431 120L463 114Q461 90 445 68T403 28T343 0T273 -10ZM313 123Q350 123 376
140T418 190T433 265Q433 309 418 341T377 390T313 408Q277 408 251 391T209 341T194 265Q194 222 209 190T250 141T313 123Z" />
<glyph unicode="e" horiz-adv-x="587" d="M324 -10Q236 -10 171 25T70 121T34 262Q34 324 54 375T110 464T196 521T305 542Q361 542 407 522T487 466T539 381T556 274L555 230H133L109 321H424L407 303V323Q405 348 392 366T357 396T308 407Q268 407 241 392T199
347T185 275Q185 232 203 199T257 148T342 130Q375 130 402 140T460 174L535 68Q504 42 469 25T398 -1T324 -10Z" />
<glyph unicode="f" horiz-adv-x="395" d="M105 0V557Q105 609 127 650T191 717T286 742Q323 742 355 731T412 699L366 582Q353 589 341 593T319 597Q301 597 289 591T272 573T266 543V0H185Q159 0 139 0T105 0ZM27 382V516H375V382H27Z" />
<glyph unicode="g" horiz-adv-x="670" d="M314 -230Q250 -230 186 -212T81 -163L137 -49Q169 -71 209 -83T294 -96Q345 -96 377 -81T424 -36T440 39V127L470 121Q464 90 437 63T369 20T285 4Q213 4 156 37T67 130T34 268Q34 348 66 410T155 507T281 542Q310 542
337 536T388 517T430 490T461 457T476 421L443 411L449 531H602V44Q602 -21 583 -72T526 -158T435 -211T314 -230ZM318 129Q357 129 385 146T429 194T445 266Q445 309 430 340T386 388T318 406Q281 406 253 389T210 340T194 267Q194 225 209 194T253 146T318 129Z"
/>
<glyph unicode="h" horiz-adv-x="636" d="M71 0V740H230V423L197 411Q208 447 236 476T305 524T389 542Q449 542 490 518T551 445T572 325V0H411V313Q411 345 402 366T375 397T330 406Q309 406 291 400T260 381T239 352T232 316V0H151Q125 0 105 0T71 0Z" />
<glyph unicode="i" horiz-adv-x="321" d="M80 0V531H241V0H80ZM161 636Q115 636 90 657T64 719Q64 756 90 779T161 802Q205 802 230 781T256 719Q256 682 231 659T161 636Z" />
<glyph unicode="j" horiz-adv-x="317" d="M24 -210L-38 -86Q30 -86 56 -59T83 41V531H244V3Q244 -69 219 -116T144 -187T24 -210ZM166 636Q120 636 96 657T71 719Q71 756 96 779T166 802Q211 802 236 781T262 719Q262 682 236 659T166 636Z" />
<glyph unicode="k" horiz-adv-x="627" d="M225 156L168 278L415 531H626L225 156ZM71 0V740H232V0H71ZM430 0L245 240L359 328L621 0H430Z" />
<glyph unicode="l" horiz-adv-x="304" d="M71 0V740H232V0H71Z" />
<glyph unicode="m" horiz-adv-x="962" d="M70 0V531H223L228 435L206 433Q217 459 236 479T278 512T328 533T380 541Q420 541 451 529T506 490T544 418L520 422L527 436Q541 460 561 479T607 513T658 534T710 541Q773 541 815 516T878 443T899 323V0H738V311Q738
358 719 381T660 405Q639 405 622 399T592 380T572 351T565 315V0H404V312Q404 357 384 381T326 405Q306 405 289 399T259 380T239 351T232 315V0H70Z" />
<glyph unicode="n" horiz-adv-x="636" d="M71 0V531H224L230 423L197 411Q208 447 236 476T305 524T389 542Q449 542 490 518T551 445T572 325V0H411V313Q411 345 402 366T375 397T330 406Q309 406 291 400T260 381T239 352T232 316V0H151Q125 0 105 0T71 0Z" />
<glyph unicode="o" horiz-adv-x="640" d="M320 -10Q238 -10 173 25T71 123T34 265Q34 346 71 408T173 506T320 542Q403 542 467 507T569 409T606 265Q606 186 569 124T468 26T320 -10ZM320 128Q356 128 383 146T427 195T442 265Q443 306 427 337T384 386T320 404Q285
404 257 386T213 337T197 265Q197 226 213 195T257 146T320 128Z" />
<glyph unicode="p" horiz-adv-x="658" d="M71 -220V531H224L231 414L200 423Q206 455 233 481T302 524T389 541Q457 541 510 506T593 409T624 265Q624 186 594 124T510 27T388 -9Q342 -9 301 8T232 54T196 115L233 130V-220H71ZM349 127Q385 127 411 144T452 192T467
265Q467 307 453 338T412 387T349 405Q312 405 285 388T243 339T228 265Q228 224 243 193T285 144T349 127Z" />
<glyph unicode="q" horiz-adv-x="658" d="M426 -220V127L460 119Q457 94 441 71T398 30T340 1T274 -10Q205 -10 151 25T65 123T34 265Q34 346 65 408T149 506T270 542Q308 542 342 532T403 503T446 461T465 412L428 406L434 531H587V-220H426ZM311 127Q347 127
374 144T415 192T430 265Q430 308 416 339T374 388T311 406Q275 406 248 389T206 340T191 265Q191 224 206 193T248 144T311 127Z" />
<glyph unicode="r" horiz-adv-x="456" d="M71 0V531H224L231 358L201 392Q214 434 241 468T305 522T384 542Q402 542 417 540T445 532L402 355Q391 361 373 365T334 370Q312 370 294 363T262 341T241 308T233 265V0H71Z" />
<glyph unicode="s" horiz-adv-x="495" d="M250 -10Q174 -10 114 14T18 82L116 166Q147 135 186 121T260 106Q273 106 283 109T300 117T312 130T316 148Q316 168 299 178Q291 183 270 190T216 206Q169 218 135 235T78 274Q58 294 48 320T37 378Q37 427 66 464T144
521T248 542Q292 542 331 532T405 504T467 461L382 366Q365 383 342 396T296 418T253 427Q238 427 227 425T208 417T196 404T192 387Q192 376 197 368T213 352Q222 347 244 339T304 321Q351 308 384 292T438 253Q455 236 462 214T470 165Q470 114 442 75T364 13T250
-10Z" />
<glyph unicode="t" horiz-adv-x="399" d="M115 0V665H276V0H115ZM21 390V531H378V390H21Z" />
<glyph unicode="u" horiz-adv-x="643" d="M252 -10Q194 -10 152 15T88 88T65 203V531H226V227Q226 178 249 151T315 123Q336 123 353 129T382 148T402 178T409 215V531H570V0H419L413 109L442 121Q431 84 403 54T335 7T252 -10Z" />
<glyph unicode="v" horiz-adv-x="607" d="M235 0L13 531H190L322 138L283 133L419 531H595L361 0H235Z" />
<glyph unicode="w" horiz-adv-x="834" d="M187 0L13 531H182L280 188L258 192L368 458H462L579 191L555 189L653 531H822L641 0H523L407 284L420 282L306 0H187Z" />
<glyph unicode="x" horiz-adv-x="607" d="M398 0L285 171L233 243L23 531H216L326 367L381 290L589 0H398ZM18 0L232 297L318 194L208 0H18ZM371 231L285 334L390 531H579L371 231Z" />
<glyph unicode="y" horiz-adv-x="621" d="M139 -230L260 54L262 -30L5 531H187L299 263Q308 244 316 220T328 175L305 162Q311 177 318 200T335 249L433 531H616L391 0L300 -230H139Z" />
<glyph unicode="z" horiz-adv-x="550" d="M50 0V94L331 451V400H50V531H490V434L225 86L221 131H498V0H50Z" />
<glyph unicode="{" horiz-adv-x="426" d="M365 -206Q313 -195 275 -179T212 -138T175 -82T163 -7L164 88Q164 138 142 161T79 186H39V314H81Q122 315 143 338T164 412L163 507Q163 589 211 636T365 706L400 591Q365 580 345 568T316 537T307 482L309 398Q309 340
274 301T164 243V258Q239 237 274 198T309 102L307 18Q307 -14 315 -32T344 -61T400 -86L365 -206Z" />
<glyph unicode="|" horiz-adv-x="316" d="M82 -193V740H234V-193H82Z" />
<glyph unicode="}" horiz-adv-x="426" d="M61 -206L26 -91Q62 -79 82 -68T110 -37T118 18L116 102Q116 160 151 199T261 257L262 242Q186 263 151 302T116 398L118 482Q118 514 110 532T82 562T26 586L61 706Q113 696 151 679T213 638T250 582T262 507L261 412Q261
363 283 339T346 314H387V186H344Q303 185 282 162T261 88L262 -7Q262 -89 214 -136T61 -206Z" />
<glyph unicode="~" horiz-adv-x="557" d="M382 202Q366 202 346 206T307 218T271 232Q256 239 240 245T209 255T185 259Q166 259 156 243T146 197H31Q31 292 68 343T184 395Q201 395 220 390T259 377T293 362Q306 357 320 351T348 341T372 337Q389 337 399 353T408
395L523 393Q523 330 507 288T460 224T382 202Z" />
<glyph unicode="&#xa0;" horiz-adv-x="319" />
<glyph unicode="&#xa1;" horiz-adv-x="307" d="M201 275Q210 214 218 148T231 17T236 -108V-181H66V-108Q66 -48 71 18T84 150T101 275H201ZM152 541Q193 541 216 518T239 451Q239 412 215 386T152 360Q111 360 88 384T65 451Q65 491 89 516T152 541Z" />
<glyph unicode="&#xa2;" horiz-adv-x="562" d="M321 78Q242 78 180 114T82 212T46 353Q46 433 81 495T179 594T321 630Q392 630 451 605T545 535L457 429Q444 446 425 460T382 482T334 490Q296 490 266 473T220 424T203 354Q203 316 220 286T266 237T335 219Q360
219 382 226T423 246T457 277L544 171Q510 128 450 103T321 78ZM263 0V109L288 147V555L263 606V706H385V605L363 559V145L385 108V0H263Z" />
<glyph unicode="&#xa3;" horiz-adv-x="637" d="M187 53L110 74Q138 90 156 126T174 196Q174 215 169 240T155 295T136 352Q124 390 118 413T110 454T107 487Q107 557 138 608T225 687T357 716Q428 716 480 693T558 625L437 531Q421 551 400 561T351 571Q323 571
301 559T267 524T254 474Q254 443 263 413T280 353Q291 319 299 286T308 229Q308 199 297 171T259 114T187 53ZM447 -22Q413 -22 378 -13T321 3Q308 7 291 12T255 21T218 25Q185 25 150 15T78 -12L20 102Q64 129 115 144T220 160Q251 160 275 155T342 135Q363 128
388 121T440 113Q463 113 490 121T548 148L620 43Q586 12 538 -5T447 -22ZM44 303V399H469V303H44Z" />
<glyph unicode="&#xa4;" horiz-adv-x="560" d="M281 110Q222 110 175 135T101 205T74 305Q74 361 101 405T175 475T281 501Q340 501 387 476T461 406T488 305Q488 249 461 205T388 136T281 110ZM131 60L31 160L119 251L218 148L131 60ZM114 369L28 451L128 550L215
465L114 369ZM281 229Q302 229 318 238T343 265T352 305Q352 328 343 345T318 373T281 383Q261 383 245 373T220 346T211 305Q211 283 220 266T245 239T281 229ZM434 63L345 150L443 252L533 163L434 63ZM441 360L342 459L434 555L534 456L441 360Z" />
<glyph unicode="&#xa5;" horiz-adv-x="690" d="M269 0V349L276 300L-7 700H187L402 392L315 395L508 700H697L426 289L441 358V0H269ZM143 120V194L579 193V119L143 120ZM143 244V317L579 316V243L143 244Z" />
<glyph unicode="&#xa6;" horiz-adv-x="322" d="M84 -202V192H239V-202H84ZM84 347V740H239V347H84Z" />
<glyph unicode="&#xa7;" horiz-adv-x="574" d="M347 130L308 212Q351 216 370 232T389 271Q389 288 376 300T332 324L246 353Q216 366 187 382T134 421T95 473T80 545Q80 592 104 630T178 692T308 716Q356 716 397 706T470 675T527 628L443 537Q418 559 395 571T349
589T307 595Q273 595 254 581T234 544Q234 529 244 517T272 495T313 478L397 447Q471 419 507 379T542 283Q540 238 516 205T449 153T347 130ZM270 -144Q222 -144 178 -132T97 -99T35 -51L114 45Q158 8 198 -8T269 -24Q307 -24 327 -11T347 27Q347 42 335 53T303
73T260 92L174 122Q104 149 69 189T33 285Q33 327 55 361T119 416T221 440L259 354Q236 352 221 344T197 324T189 297Q189 278 204 265T254 239L324 215Q376 195 415 172T477 115T500 33Q500 -16 476 -56T402 -120T270 -144Z" />
<glyph unicode="&#xa8;" horiz-adv-x="500" d="M371 625Q329 625 306 648T283 711Q283 749 307 773T371 797Q412 797 435 775T458 711Q458 674 435 650T371 625ZM130 625Q88 625 66 648T43 711Q43 749 66 773T130 797Q172 797 194 775T217 711Q217 674 194 650T130 625Z" />
<glyph unicode="&#xa9;" horiz-adv-x="790" d="M394 -18Q318 -18 251 10T134 88T56 206T27 350Q27 427 55 494T134 611T251 690T394 718Q471 718 537 690T654 612T733 494T762 350Q762 273 734 206T655 89T538 10T394 -18ZM411 143Q352 143 304 170T227 244T198
350Q198 407 226 454T303 529T411 557Q447 557 481 545T546 509L497 403Q474 420 456 426T423 432Q398 432 378 421T347 392T336 350Q336 325 347 306T378 277T423 266Q440 266 460 272T500 295L550 187Q519 165 484 154T411 143ZM394 57Q455 57 508 79T601 142T664
236T687 350Q687 412 665 465T602 558T508 620T394 643Q333 643 281 621T188 558T126 465T103 350Q103 289 125 236T187 143T280 80T394 57Z" />
<glyph unicode="&#xaa;" horiz-adv-x="390" d="M139 391Q102 391 75 412T32 472T17 562Q17 608 34 644T81 700T151 721Q207 721 232 689T258 596L238 648V715H355V401H238V474L258 507Q258 478 244 451T203 408T139 391ZM186 482Q211 482 226 502T242 556Q242
591 227 610T184 630Q163 630 149 610T134 561Q134 537 140 519T157 492T186 482Z" />
<glyph unicode="&#xab;" horiz-adv-x="561" d="M432 27L257 252V264L431 492L523 428L403 242L402 276L523 91L432 27ZM185 27L10 252V264L184 492L276 428L156 242L155 276L276 91L185 27Z" />
<glyph unicode="&#xac;" horiz-adv-x="670" d="M477 106V317L540 276H42V416H628V106H477Z" />
<glyph unicode="&#xad;" horiz-adv-x="452" d="M58 214V361H402V214H58Z" />
<glyph unicode="&#xae;" horiz-adv-x="506" d="M259 236Q189 236 132 269T41 359T7 485Q7 553 41 609T132 698T259 732Q310 732 354 713T433 659T486 580T505 484Q505 416 472 360T383 270T259 236ZM259 302Q309 302 350 326T416 391T441 484Q441 535 417 576T351
642T259 667Q207 667 165 643T97 577T72 484Q72 433 97 392T164 326T259 302ZM292 367L256 456L324 473L379 367H292ZM159 367V606H281Q319 606 342 585T365 531Q365 496 341 475T281 453H225L239 464V367H159ZM239 496L226 503H261Q273 503 280 508T288 523Q288
533 281 538T263 544H224L239 552V496Z" />
<glyph unicode="&#xaf;" horiz-adv-x="424" d="M83 633V735H417V633H83Z" />
<glyph unicode="&#xb0;" horiz-adv-x="532" d="M266 393Q219 393 181 414T121 472T99 553Q99 599 121 635T180 693T266 715Q314 715 352 694T411 636T433 554Q433 510 411 473T351 415T266 393ZM266 490Q283 490 296 498T317 521T325 554Q325 572 318 586T297
608T266 617Q249 617 236 609T215 586T207 553Q207 535 215 521T236 498T266 490Z" />
<glyph unicode="&#xb1;" horiz-adv-x="638" d="M67 310V441H570V310H67ZM68 -8V124H571V-8H68ZM243 181V575H395V181H243Z" />
<glyph unicode="&#xb2;" horiz-adv-x="364" d="M60 418L46 503L148 584Q163 595 177 608T202 637T212 668Q212 681 206 688T185 696Q166 696 148 682T115 644L38 699Q69 746 107 770T194 795Q252 795 287 763T322 685Q322 645 303 615T255 563T199 523L146 484L148
509H330V418H60Z" />
<glyph unicode="&#xb3;" horiz-adv-x="355" d="M176 412Q135 412 103 420T36 446L81 525Q99 515 116 510T153 504Q175 504 189 514T203 542Q203 557 191 566T155 576Q142 576 128 573T100 565L77 628L217 724L225 697H64V788H281L291 704L173 619L167 626Q177
632 189 635T208 638Q254 638 283 610T313 534Q313 498 294 471T244 428T176 412Z" />
<glyph unicode="&#xb4;" horiz-adv-x="500" d="M172 583L124 657L302 798L376 693L172 583Z" />
<glyph unicode="&#xb5;" horiz-adv-x="639" d="M75 -162V531H233V223Q233 190 242 168T269 135T313 123Q334 123 351 130T382 151T403 182T410 221V531H568V0H419L414 100L428 90Q409 54 386 33T333 2T265 -11Q253 -11 243 -8T225 0T214 12L227 64L233 -162H75Z" />
<glyph unicode="&#xb6;" horiz-adv-x="765" d="M246 0V315L293 273H231Q177 273 135 300T68 375T43 484Q43 549 71 597T149 673T268 700H678V0H512V659L562 593H334L412 651V0H246Z" />
<glyph unicode="&#xb7;" horiz-adv-x="256" d="M128 253Q87 253 65 276T42 343Q42 383 65 408T128 434Q169 434 192 411T215 343Q215 303 191 278T128 253Z" />
<glyph unicode="&#xb8;" horiz-adv-x="500" d="M152 -246L142 -171Q163 -171 185 -166T223 -152T239 -131Q239 -119 228 -112T199 -102T167 -98L150 -85L220 25H302L257 -42Q309 -49 334 -75T359 -139Q359 -169 340 -190T290 -224T223 -242T152 -246Z" />
<glyph unicode="&#xb9;" horiz-adv-x="290" d="M115 430V720L132 680L72 643L26 726L143 795H230V430H172Q159 430 145 430T115 430Z" />
<glyph unicode="&#xba;" horiz-adv-x="398" d="M199 392Q150 392 112 413T53 470T31 552Q31 599 52 635T112 693T199 715Q246 715 284 694T344 635T367 552Q367 506 345 470T286 413T199 392ZM197 478Q223 478 237 499T251 554Q251 588 237 608T197 629Q174 629
159 608T144 554Q144 520 158 499T197 478Z" />
<glyph unicode="&#xbb;" horiz-adv-x="562" d="M378 29L285 93L406 279L405 245L286 430L377 494L552 269V257L378 29ZM130 29L37 93L158 279L157 245L38 430L129 494L304 269V257L130 29Z" />
<glyph unicode="&#xbc;" horiz-adv-x="820" d="M123 360V650L140 610L80 573L34 656L151 725H238V360H180Q167 360 153 360T123 360ZM89 0L556 700H703L235 0H89ZM711 160H785V70H711V160ZM528 126L512 160H657L623 127V281L652 270L528 126ZM728 -1H607V103L637
70H462L442 152L622 368H728V-1Z" />
<glyph unicode="&#xbd;" horiz-adv-x="826" d="M123 360V650L140 610L80 573L34 656L151 725H238V360H180Q167 360 153 360T123 360ZM92 0L559 700H706L238 0H92ZM521 0L507 85L609 166Q624 177 638 190T663 219T673 250Q673 263 667 270T646 278Q627 278 609
264T576 226L499 281Q530 328 568 352T655 377Q713 377 748 345T783 267Q783 227 764 197T716 145T660 105L607 66L609 91H791V0H521Z" />
<glyph unicode="&#xbe;" horiz-adv-x="848" d="M162 342Q121 342 89 350T22 376L67 455Q85 445 102 440T139 434Q161 434 175 444T189 472Q189 487 177 496T141 506Q128 506 114 503T86 495L63 558L203 654L211 627H50V718H267L277 634L159 549L153 556Q163 562
175 565T194 568Q240 568 269 540T299 464Q299 428 280 401T230 358T162 342ZM122 0L589 700H736L268 0H122ZM739 160H813V70H739V160ZM556 126L540 160H685L651 127V281L680 270L556 126ZM756 -1H635V103L665 70H490L470 152L650 368H756V-1Z" />
<glyph unicode="&#xbf;" horiz-adv-x="537" d="M329 293L362 163Q325 154 294 142T239 114T202 78T188 31Q188 12 198 -2T224 -25T259 -33Q285 -33 309 -24T358 5T415 52L497 -61Q466 -93 427 -120T343 -164T246 -181Q178 -181 129 -154T54 -81T28 24Q28 74 52
115T121 191T231 258L242 293H329ZM366 455Q366 415 342 390T279 364Q238 364 216 388T193 455Q193 495 216 520T279 545Q320 545 343 522T366 455Z" />
<glyph unicode="&#xc0;" horiz-adv-x="697" d="M0 0L277 700H422L697 0H525L392 355Q385 376 377 400T360 450T345 500T333 545L362 546Q356 521 349 497T334 449T318 402T300 353L168 0H0ZM132 134L186 264H506L560 134H132ZM446 748L219 826L276 944L485 828L446 748Z" />
<glyph unicode="&#xc1;" horiz-adv-x="697" d="M0 0L277 700H422L697 0H525L392 355Q385 376 377 400T360 450T345 500T333 545L362 546Q356 521 349 497T334 449T318 402T300 353L168 0H0ZM132 134L186 264H506L560 134H132ZM261 748L224 828L433 944L488 826L261 748Z" />
<glyph unicode="&#xc2;" horiz-adv-x="697" d="M0 0L277 700H422L697 0H525L392 355Q385 376 377 400T360 450T345 500T333 545L362 546Q356 521 349 497T334 449T318 402T300 353L168 0H0ZM132 134L186 264H506L560 134H132ZM218 753L167 811L304 918H395L531
811L481 753L335 824H364L218 753Z" />
<glyph unicode="&#xc3;" horiz-adv-x="697" d="M0 0L277 700H422L697 0H525L392 355Q385 376 377 400T360 450T345 500T333 545L362 546Q356 521 349 497T334 449T318 402T300 353L168 0H0ZM132 134L186 264H506L560 134H132ZM427 767Q407 767 387 773T342 790Q324
798 312 802T290 806Q276 806 268 796T259 767H159Q159 834 195 872T288 910Q306 910 323 905T367 888Q383 881 394 877T415 872Q428 872 435 882T441 910H540Q540 871 526 839T487 787T427 767Z" />
<glyph unicode="&#xc4;" horiz-adv-x="697" d="M0 0L277 700H422L697 0H525L392 355Q385 376 377 400T360 450T345 500T333 545L362 546Q356 521 349 497T334 449T318 402T300 353L168 0H0ZM132 134L186 264H506L560 134H132ZM470 754Q427 754 405 776T383 839Q383
874 405 899T470 924Q514 924 535 902T557 839Q557 803 535 779T470 754ZM226 754Q183 754 161 776T139 839Q139 874 161 899T226 924Q270 924 292 902T314 839Q314 803 291 779T226 754Z" />
<glyph unicode="&#xc5;" horiz-adv-x="697" d="M0 0L277 700H422L697 0H525L392 355Q385 376 377 400T360 450T345 500T333 545L362 546Q356 521 349 497T334 449T318 402T300 353L168 0H0ZM132 134L186 264H506L560 134H132ZM349 673Q314 673 284 690T236 735T217
796Q217 831 235 860T283 906T349 924Q385 924 415 907T463 860T482 796Q482 763 464 735T415 690T349 673ZM349 756Q366 756 378 767T390 796Q390 813 378 824T349 836Q333 836 321 825T309 796Q309 779 321 768T349 756Z" />
<glyph unicode="&#xc6;" horiz-adv-x="1072" d="M-8 0L480 700H1013V559H686V422H968V286H686V141H1013V0H523V141H256L348 275H523V554L549 546L176 0H-8Z" />
<glyph unicode="&#xc7;" horiz-adv-x="693" d="M405 -10Q326 -10 260 16T145 91T70 206T43 352Q43 430 70 496T148 611T265 687T412 714Q462 714 510 701T599 663T671 601L566 482Q535 516 497 535T411 554Q371 554 336 540T274 499T233 435T218 351Q218 305 232
268T274 204T340 163T426 149Q457 149 485 157T539 182T582 218L665 86Q641 59 600 37T508 3T405 -10ZM297 -246L287 -171Q308 -171 330 -166T368 -152T384 -131Q384 -119 373 -112T345 -102T314 -98L296 -85L365 25H448L403 -42Q454 -49 479 -75T505 -139Q505
-169 486 -190T436 -224T368 -242T297 -246Z" />
<glyph unicode="&#xc8;" horiz-adv-x="645" d="M87 0V700H575V554H254V146H586V0H87ZM168 286V426H531V286H168ZM440 748L213 826L270 944L479 828L440 748Z" />
<glyph unicode="&#xc9;" horiz-adv-x="645" d="M87 0V700H575V554H254V146H586V0H87ZM168 286V426H531V286H168ZM254 748L217 828L426 944L481 826L254 748Z" />
<glyph unicode="&#xca;" horiz-adv-x="645" d="M87 0V700H575V554H254V146H586V0H87ZM168 286V426H531V286H168ZM211 753L160 811L297 918H388L524 811L474 753L328 824H357L211 753Z" />
<glyph unicode="&#xcb;" horiz-adv-x="645" d="M87 0V700H575V554H254V146H586V0H87ZM168 286V426H531V286H168ZM464 754Q421 754 399 776T377 839Q377 874 399 899T464 924Q508 924 529 902T551 839Q551 803 529 779T464 754ZM220 754Q177 754 155 776T133 839Q133
874 155 899T220 924Q264 924 286 902T308 839Q308 803 285 779T220 754Z" />
<glyph unicode="&#xcc;" horiz-adv-x="555" d="M74 0V144H192V556H74V700H481V556H363V144H481V0H74ZM375 748L148 826L205 944L414 828L375 748Z" />
<glyph unicode="&#xcd;" horiz-adv-x="555" d="M74 0V144H192V556H74V700H481V556H363V144H481V0H74ZM189 748L152 828L361 944L416 826L189 748Z" />
<glyph unicode="&#xce;" horiz-adv-x="555" d="M74 0V144H192V556H74V700H481V556H363V144H481V0H74ZM146 753L95 811L232 918H323L459 811L409 753L263 824H292L146 753Z" />
<glyph unicode="&#xcf;" horiz-adv-x="555" d="M74 0V144H192V556H74V700H481V556H363V144H481V0H74ZM399 754Q356 754 334 776T312 839Q312 874 334 899T399 924Q443 924 464 902T486 839Q486 803 464 779T399 754ZM155 754Q112 754 90 776T68 839Q68 874 90
899T155 924Q199 924 221 902T243 839Q243 803 220 779T155 754Z" />
<glyph unicode="&#xd0;" horiz-adv-x="772" d="M36 290V410H360V290H36ZM87 0V700H382Q459 700 523 675T633 603T704 492T729 350Q729 272 704 208T633 98T524 26T382 0H87ZM258 118L236 151H377Q418 151 451 165T507 205T543 268T556 350Q556 395 544 431T508
494T451 535T377 549H233L258 580V118Z" />
<glyph unicode="&#xd1;" horiz-adv-x="808" d="M87 0V700H240L608 201L575 205Q568 261 563 309T557 411T555 533V700H721V0H566L184 514L233 507Q240 446 244 406T250 338T253 285T254 230V0H87ZM482 767Q462 767 442 773T397 790Q379 798 367 802T345 806Q331
806 323 796T314 767H214Q214 834 250 872T343 910Q361 910 378 905T422 888Q438 881 449 877T470 872Q483 872 490 882T496 910H595Q595 871 581 839T542 787T482 767Z" />
<glyph unicode="&#xd2;" horiz-adv-x="810" d="M406 -10Q327 -10 261 17T146 92T70 207T43 353Q43 431 70 497T145 613T260 689T406 716Q484 716 550 689T664 613T740 498T767 352Q767 274 740 208T665 93T550 17T406 -10ZM406 151Q447 151 481 166T540 208T580
272T594 352Q594 396 580 433T541 497T481 540T406 555Q365 555 331 540T271 498T231 433T217 352Q217 294 241 249T308 177T406 151ZM502 748L275 826L332 944L541 828L502 748Z" />
<glyph unicode="&#xd3;" horiz-adv-x="810" d="M406 -10Q327 -10 261 17T146 92T70 207T43 353Q43 431 70 497T145 613T260 689T406 716Q484 716 550 689T664 613T740 498T767 352Q767 274 740 208T665 93T550 17T406 -10ZM406 151Q447 151 481 166T540 208T580
272T594 352Q594 396 580 433T541 497T481 540T406 555Q365 555 331 540T271 498T231 433T217 352Q217 294 241 249T308 177T406 151ZM317 748L280 828L489 944L544 826L317 748Z" />
<glyph unicode="&#xd4;" horiz-adv-x="810" d="M406 -10Q327 -10 261 17T146 92T70 207T43 353Q43 431 70 497T145 613T260 689T406 716Q484 716 550 689T664 613T740 498T767 352Q767 274 740 208T665 93T550 17T406 -10ZM406 151Q447 151 481 166T540 208T580
272T594 352Q594 396 580 433T541 497T481 540T406 555Q365 555 331 540T271 498T231 433T217 352Q217 294 241 249T308 177T406 151ZM273 753L222 811L359 918H450L586 811L536 753L390 824H419L273 753Z" />
<glyph unicode="&#xd5;" horiz-adv-x="810" d="M406 -10Q327 -10 261 17T146 92T70 207T43 353Q43 431 70 497T145 613T260 689T406 716Q484 716 550 689T664 613T740 498T767 352Q767 274 740 208T665 93T550 17T406 -10ZM406 151Q447 151 481 166T540 208T580
272T594 352Q594 396 580 433T541 497T481 540T406 555Q365 555 331 540T271 498T231 433T217 352Q217 294 241 249T308 177T406 151ZM483 767Q463 767 443 773T398 790Q380 798 368 802T346 806Q332 806 324 796T315 767H215Q215 834 251 872T344 910Q362 910
379 905T423 888Q439 881 450 877T471 872Q484 872 491 882T497 910H596Q596 871 582 839T543 787T483 767Z" />
<glyph unicode="&#xd6;" horiz-adv-x="810" d="M406 -10Q327 -10 261 17T146 92T70 207T43 353Q43 431 70 497T145 613T260 689T406 716Q484 716 550 689T664 613T740 498T767 352Q767 274 740 208T665 93T550 17T406 -10ZM406 151Q447 151 481 166T540 208T580
272T594 352Q594 396 580 433T541 497T481 540T406 555Q365 555 331 540T271 498T231 433T217 352Q217 294 241 249T308 177T406 151ZM526 754Q483 754 461 776T439 839Q439 874 461 899T526 924Q570 924 591 902T613 839Q613 803 591 779T526 754ZM282 754Q239
754 217 776T195 839Q195 874 217 899T282 924Q326 924 348 902T370 839Q370 803 347 779T282 754Z" />
<glyph unicode="&#xd7;" horiz-adv-x="532" d="M397 52L37 413L134 507L495 148L397 52ZM133 49L39 147L399 507L494 411L133 49Z" />
<glyph unicode="&#xd8;" horiz-adv-x="805" d="M139 -33L75 21L664 742L733 694L139 -33ZM405 -10Q326 -10 260 17T145 92T69 207T42 353Q42 431 69 497T144 613T259 689T405 716Q483 716 549 689T663 613T739 498T766 352Q766 274 739 208T664 93T549 17T405
-10ZM405 151Q446 151 480 166T539 208T579 272T593 352Q593 396 579 433T540 497T480 540T405 555Q364 555 330 540T270 498T230 433T216 352Q216 294 240 249T307 177T405 151Z" />
<glyph unicode="&#xd9;" horiz-adv-x="764" d="M383 -6Q296 -6 229 29T122 127T83 269V701H255V278Q255 240 272 210T318 163T383 145Q420 145 450 162T497 210T515 278V701H681V269Q681 190 643 128T537 30T383 -6ZM479 748L252 826L309 944L518 828L479 748Z" />
<glyph unicode="&#xda;" horiz-adv-x="764" d="M383 -6Q296 -6 229 29T122 127T83 269V701H255V278Q255 240 272 210T318 163T383 145Q420 145 450 162T497 210T515 278V701H681V269Q681 190 643 128T537 30T383 -6ZM294 748L257 828L466 944L521 826L294 748Z" />
<glyph unicode="&#xdb;" horiz-adv-x="764" d="M383 -6Q296 -6 229 29T122 127T83 269V701H255V278Q255 240 272 210T318 163T383 145Q420 145 450 162T497 210T515 278V701H681V269Q681 190 643 128T537 30T383 -6ZM250 753L199 811L336 918H427L563 811L513
753L367 824H396L250 753Z" />
<glyph unicode="&#xdc;" horiz-adv-x="764" d="M383 -6Q296 -6 229 29T122 127T83 269V701H255V278Q255 240 272 210T318 163T383 145Q420 145 450 162T497 210T515 278V701H681V269Q681 190 643 128T537 30T383 -6ZM503 754Q460 754 438 776T416 839Q416 874
438 899T503 924Q547 924 568 902T590 839Q590 803 568 779T503 754ZM259 754Q216 754 194 776T172 839Q172 874 194 899T259 924Q303 924 325 902T347 839Q347 803 324 779T259 754Z" />
<glyph unicode="&#xdd;" horiz-adv-x="690" d="M269 0V349L276 300L-7 700H187L402 392L315 395L508 700H697L426 289L441 358V0H269ZM256 748L219 828L428 944L483 826L256 748Z" />
<glyph unicode="&#xde;" horiz-adv-x="663" d="M87 0V700H258V589H391Q457 589 509 559T591 477T621 359Q621 292 591 238T509 153T391 122H258V0H87ZM258 273H368Q390 273 407 283T436 313T447 357Q447 382 436 400T408 428T368 438H258V273Z" />
<glyph unicode="&#xdf;" horiz-adv-x="671" d="M429 -10Q387 -10 355 2T297 40L360 150Q380 136 394 131T424 125Q454 125 472 146T491 202Q491 240 471 268T418 316T344 349V435Q365 444 380 454T404 476T418 499T423 526Q423 556 402 572T344 589Q305 589 285
565T264 499V0H106V499Q106 569 135 622T219 704T351 734Q415 734 465 714T544 657T573 566Q573 534 560 503T522 445T464 403L462 438Q516 421 557 388T622 309T646 204Q646 144 618 96T540 19T429 -10ZM27 365V503H179V365H27Z" />
<glyph unicode="&#xe0;" horiz-adv-x="566" d="M354 0V326Q354 367 332 386T269 406Q230 406 200 392T141 344L45 437Q93 486 155 514T290 542Q357 542 406 522T482 461T509 357V0H354ZM216 -10Q166 -10 126 10T62 65T38 149Q38 190 53 221T97 272T171 303T275
314H436L427 213H279Q258 213 242 210T215 199T199 181T193 157Q193 142 201 131T222 114T254 108Q280 108 303 116T345 141T375 178L403 106Q382 72 353 46T289 5T216 -10ZM341 590L137 700L211 805L389 664L341 590Z" />
<glyph unicode="&#xe1;" horiz-adv-x="566" d="M354 0V326Q354 367 332 386T269 406Q230 406 200 392T141 344L45 437Q93 486 155 514T290 542Q357 542 406 522T482 461T509 357V0H354ZM216 -10Q166 -10 126 10T62 65T38 149Q38 190 53 221T97 272T171 303T275
314H436L427 213H279Q258 213 242 210T215 199T199 181T193 157Q193 142 201 131T222 114T254 108Q280 108 303 116T345 141T375 178L403 106Q382 72 353 46T289 5T216 -10ZM204 589L156 663L334 804L408 699L204 589Z" />
<glyph unicode="&#xe2;" horiz-adv-x="566" d="M354 0V326Q354 367 332 386T269 406Q230 406 200 392T141 344L45 437Q93 486 155 514T290 542Q357 542 406 522T482 461T509 357V0H354ZM216 -10Q166 -10 126 10T62 65T38 149Q38 190 53 221T97 272T171 303T275
314H436L427 213H279Q258 213 242 210T215 199T199 181T193 157Q193 142 201 131T222 114T254 108Q280 108 303 116T345 141T375 178L403 106Q382 72 353 46T289 5T216 -10ZM149 601L91 651L235 780H331L475 651L417 601L268 686H298L149 601Z" />
<glyph unicode="&#xe3;" horiz-adv-x="566" d="M354 0V326Q354 367 332 386T269 406Q230 406 200 392T141 344L45 437Q93 486 155 514T290 542Q357 542 406 522T482 461T509 357V0H354ZM216 -10Q166 -10 126 10T62 65T38 149Q38 190 53 221T97 272T171 303T275
314H436L427 213H279Q258 213 242 210T215 199T199 181T193 157Q193 142 201 131T222 114T254 108Q280 108 303 116T345 141T375 178L403 106Q382 72 353 46T289 5T216 -10ZM350 614Q334 614 317 620T276 641Q258 655 248 661T230 667Q215 667 205 656T192 619L102
630Q102 687 133 727T218 768Q235 768 251 763T291 741Q305 731 316 723T339 715Q353 715 362 727T376 763L465 751Q464 715 450 684T410 633T350 614Z" />
<glyph unicode="&#xe4;" horiz-adv-x="566" d="M354 0V326Q354 367 332 386T269 406Q230 406 200 392T141 344L45 437Q93 486 155 514T290 542Q357 542 406 522T482 461T509 357V0H354ZM216 -10Q166 -10 126 10T62 65T38 149Q38 190 53 221T97 272T171 303T275
314H436L427 213H279Q258 213 242 210T215 199T199 181T193 157Q193 142 201 131T222 114T254 108Q280 108 303 116T345 141T375 178L403 106Q382 72 353 46T289 5T216 -10ZM404 631Q362 631 339 654T316 717Q316 755 340 779T404 803Q445 803 468 781T491 717Q491
680 468 656T404 631ZM163 631Q121 631 99 654T76 717Q76 755 99 779T163 803Q205 803 227 781T250 717Q250 680 227 656T163 631Z" />
<glyph unicode="&#xe5;" horiz-adv-x="566" d="M354 0V326Q354 367 332 386T269 406Q230 406 200 392T141 344L45 437Q93 486 155 514T290 542Q357 542 406 522T482 461T509 357V0H354ZM216 -10Q166 -10 126 10T62 65T38 149Q38 190 53 221T97 272T171 303T275
314H436L427 213H279Q258 213 242 210T215 199T199 181T193 157Q193 142 201 131T222 114T254 108Q280 108 303 116T345 141T375 178L403 106Q382 72 353 46T289 5T216 -10ZM283 605Q251 605 224 621T179 663T162 720Q162 752 178 779T222 822T283 838Q316 838
343 822T387 779T404 720Q404 689 388 663T344 621T283 605ZM283 685Q299 685 309 695T320 720Q320 737 310 747T283 758Q267 758 257 748T246 721Q246 706 256 696T283 685Z" />
<glyph unicode="&#xe6;" horiz-adv-x="904" d="M220 -10Q169 -10 128 10T62 65T38 149Q38 190 53 221T99 273T175 304T279 314H733L723 303V324Q721 348 708 367T674 396T626 407Q587 407 560 392T518 347T504 275Q504 233 524 200T581 149T668 130Q703 130 731
140T790 174L860 67Q829 41 794 24T723 -2T650 -10Q563 -10 499 24T399 120T363 262Q363 323 382 374T437 463T520 521T624 542Q697 542 753 507T842 412T873 274L872 225H281Q260 225 245 221T219 208T203 188T197 161Q197 146 204 134T225 115T257 108Q284 108
307 116T349 141T379 178L431 94Q410 62 377 39T303 3T220 -10ZM360 248V333Q360 352 354 365T336 388T308 401T270 406Q231 406 204 392T153 344L57 438Q95 485 156 513T293 542Q341 542 379 532T445 500T487 445T502 368V251L360 248Z" />
<glyph unicode="&#xe7;" horiz-adv-x="545" d="M304 -10Q227 -10 166 26T69 124T34 265Q34 345 69 407T165 506T304 542Q375 542 434 517T528 447L441 341Q428 358 409 372T367 394T319 402Q281 402 252 385T207 336T191 266Q191 228 207 198T253 149T318 131Q344
131 366 138T406 158T441 189L528 83Q494 41 433 16T304 -10ZM206 -246L196 -171Q217 -171 239 -166T277 -152T293 -131Q293 -119 282 -112T253 -102T221 -98L204 -85L274 25H356L311 -42Q363 -49 388 -75T413 -139Q413 -169 394 -190T344 -224T277 -242T206 -246Z"
/>
<glyph unicode="&#xe8;" horiz-adv-x="586" d="M324 -10Q236 -10 171 25T70 121T34 262Q34 324 54 375T110 464T196 521T305 542Q361 542 407 522T487 466T539 381T556 274L555 230H133L109 321H424L407 303V323Q405 348 392 366T357 396T308 407Q268 407 241
392T199 347T185 275Q185 232 203 199T257 148T342 130Q375 130 402 140T460 174L535 68Q504 42 469 25T398 -1T324 -10ZM363 590L159 700L233 805L411 664L363 590Z" />
<glyph unicode="&#xe9;" horiz-adv-x="586" d="M324 -10Q236 -10 171 25T70 121T34 262Q34 324 54 375T110 464T196 521T305 542Q361 542 407 522T487 466T539 381T556 274L555 230H133L109 321H424L407 303V323Q405 348 392 366T357 396T308 407Q268 407 241
392T199 347T185 275Q185 232 203 199T257 148T342 130Q375 130 402 140T460 174L535 68Q504 42 469 25T398 -1T324 -10ZM227 589L179 663L357 804L431 699L227 589Z" />
<glyph unicode="&#xea;" horiz-adv-x="586" d="M324 -10Q236 -10 171 25T70 121T34 262Q34 324 54 375T110 464T196 521T305 542Q361 542 407 522T487 466T539 381T556 274L555 230H133L109 321H424L407 303V323Q405 348 392 366T357 396T308 407Q268 407 241
392T199 347T185 275Q185 232 203 199T257 148T342 130Q375 130 402 140T460 174L535 68Q504 42 469 25T398 -1T324 -10ZM171 601L113 651L257 780H353L497 651L439 601L290 686H320L171 601Z" />
<glyph unicode="&#xeb;" horiz-adv-x="586" d="M324 -10Q236 -10 171 25T70 121T34 262Q34 324 54 375T110 464T196 521T305 542Q361 542 407 522T487 466T539 381T556 274L555 230H133L109 321H424L407 303V323Q405 348 392 366T357 396T308 407Q268 407 241
392T199 347T185 275Q185 232 203 199T257 148T342 130Q375 130 402 140T460 174L535 68Q504 42 469 25T398 -1T324 -10ZM425 631Q383 631 360 654T337 717Q337 755 361 779T425 803Q466 803 489 781T512 717Q512 680 489 656T425 631ZM184 631Q142 631 120 654T97
717Q97 755 120 779T184 803Q226 803 248 781T271 717Q271 680 248 656T184 631Z" />
<glyph unicode="&#xec;" horiz-adv-x="290" d="M64 0V531H225V0H64ZM459 590L255 700L329 805L507 664L459 590Z" />
<glyph unicode="&#xed;" horiz-adv-x="290" d="M64 0V531H225V0H64ZM322 589L274 663L452 804L526 699L322 589Z" />
<glyph unicode="&#xee;" horiz-adv-x="290" d="M64 0V531H225V0H64ZM267 601L209 651L353 780H449L593 651L535 601L386 686H416L267 601Z" />
<glyph unicode="&#xef;" horiz-adv-x="290" d="M64 0V531H225V0H64ZM521 631Q479 631 456 654T433 717Q433 755 457 779T521 803Q562 803 585 781T608 717Q608 680 585 656T521 631ZM280 631Q238 631 216 654T193 717Q193 755 216 779T280 803Q322 803 344 781T367
717Q367 680 344 656T280 631Z" />
<glyph unicode="&#xf0;" d="M297 -7Q221 -7 162 28T68 123T34 256Q34 309 54 356T110 439T190 496T286 517Q336 517 375 497T441 438T478 347L383 379Q380 434 367 475T329 548T265 603T168 643L217 746Q280 730 333 702T429 632T501 539T546 424T562 288Q562
201 529 135T436 31T297 -7ZM298 130Q330 130 356 147T397 195T412 262Q412 298 397 327T356 374T298 391Q266 391 240 374T199 328T184 262Q184 225 199 195T240 148T298 130ZM150 516L137 583L294 623L352 650L499 683L518 616L404 590L360 565L150 516Z" />
<glyph unicode="&#xf1;" horiz-adv-x="636" d="M71 0V531H224L230 423L197 411Q208 447 236 476T305 524T389 542Q449 542 490 518T551 445T572 325V0H411V313Q411 345 402 366T375 397T330 406Q309 406 291 400T260 381T239 352T232 316V0H151Q125 0 105 0T71
0ZM416 614Q400 614 383 620T342 641Q324 655 314 661T296 667Q281 667 271 656T258 619L168 630Q168 687 199 727T284 768Q301 768 317 763T357 741Q371 731 382 723T405 715Q419 715 428 727T442 763L531 751Q530 715 516 684T476 633T416 614Z" />
<glyph unicode="&#xf2;" horiz-adv-x="640" d="M320 -10Q238 -10 173 25T71 123T34 265Q34 346 71 408T173 506T320 542Q403 542 467 507T569 409T606 265Q606 186 569 124T468 26T320 -10ZM320 128Q356 128 383 146T427 195T442 265Q443 306 427 337T384 386T320
404Q285 404 257 386T213 337T197 265Q197 226 213 195T257 146T320 128ZM378 590L174 700L248 805L426 664L378 590Z" />
<glyph unicode="&#xf3;" horiz-adv-x="640" d="M320 -10Q238 -10 173 25T71 123T34 265Q34 346 71 408T173 506T320 542Q403 542 467 507T569 409T606 265Q606 186 569 124T468 26T320 -10ZM320 128Q356 128 383 146T427 195T442 265Q443 306 427 337T384 386T320
404Q285 404 257 386T213 337T197 265Q197 226 213 195T257 146T320 128ZM242 589L194 663L372 804L446 699L242 589Z" />
<glyph unicode="&#xf4;" horiz-adv-x="640" d="M320 -10Q238 -10 173 25T71 123T34 265Q34 346 71 408T173 506T320 542Q403 542 467 507T569 409T606 265Q606 186 569 124T468 26T320 -10ZM320 128Q356 128 383 146T427 195T442 265Q443 306 427 337T384 386T320
404Q285 404 257 386T213 337T197 265Q197 226 213 195T257 146T320 128ZM186 601L128 651L272 780H368L512 651L454 601L305 686H335L186 601Z" />
<glyph unicode="&#xf5;" horiz-adv-x="640" d="M320 -10Q238 -10 173 25T71 123T34 265Q34 346 71 408T173 506T320 542Q403 542 467 507T569 409T606 265Q606 186 569 124T468 26T320 -10ZM320 128Q356 128 383 146T427 195T442 265Q443 306 427 337T384 386T320
404Q285 404 257 386T213 337T197 265Q197 226 213 195T257 146T320 128ZM386 614Q370 614 353 620T312 641Q294 655 284 661T266 667Q251 667 241 656T228 619L138 630Q138 687 169 727T254 768Q271 768 287 763T327 741Q341 731 352 723T375 715Q389 715 398
727T412 763L501 751Q500 715 486 684T446 633T386 614Z" />
<glyph unicode="&#xf6;" horiz-adv-x="640" d="M320 -10Q238 -10 173 25T71 123T34 265Q34 346 71 408T173 506T320 542Q403 542 467 507T569 409T606 265Q606 186 569 124T468 26T320 -10ZM320 128Q356 128 383 146T427 195T442 265Q443 306 427 337T384 386T320
404Q285 404 257 386T213 337T197 265Q197 226 213 195T257 146T320 128ZM440 631Q398 631 375 654T352 717Q352 755 376 779T440 803Q481 803 504 781T527 717Q527 680 504 656T440 631ZM199 631Q157 631 135 654T112 717Q112 755 135 779T199 803Q241 803 263
781T286 717Q286 680 263 656T199 631Z" />
<glyph unicode="&#xf7;" horiz-adv-x="597" d="M43 198V329H554V198H43ZM296 -26Q269 -26 249 -16T217 14T205 60Q205 85 216 104T249 134T296 145Q324 145 344 135T375 105T387 60Q387 36 376 17T344 -14T296 -26ZM296 380Q269 380 249 390T217 420T205 464Q205
489 216 508T249 539T296 550Q324 550 344 540T375 510T387 464Q387 440 376 421T344 391T296 380Z" />
<glyph unicode="&#xf8;" horiz-adv-x="640" d="M120 -36L53 14L515 560L583 510L120 -36ZM320 -10Q238 -10 173 25T71 123T34 265Q34 346 71 408T173 506T320 542Q403 542 467 507T569 409T606 265Q606 186 569 124T468 26T320 -10ZM320 128Q356 128 383 146T427
195T442 265Q443 306 427 337T384 386T320 404Q285 404 257 386T213 337T197 265Q197 226 213 195T257 146T320 128Z" />
<glyph unicode="&#xf9;" horiz-adv-x="643" d="M252 -10Q194 -10 152 15T88 88T65 203V531H226V227Q226 178 249 151T315 123Q336 123 353 129T382 148T402 178T409 215V531H570V0H419L413 109L442 121Q431 84 403 54T335 7T252 -10ZM380 590L176 700L250 805L428
664L380 590Z" />
<glyph unicode="&#xfa;" horiz-adv-x="643" d="M252 -10Q194 -10 152 15T88 88T65 203V531H226V227Q226 178 249 151T315 123Q336 123 353 129T382 148T402 178T409 215V531H570V0H419L413 109L442 121Q431 84 403 54T335 7T252 -10ZM244 589L196 663L374 804L448
699L244 589Z" />
<glyph unicode="&#xfb;" horiz-adv-x="643" d="M252 -10Q194 -10 152 15T88 88T65 203V531H226V227Q226 178 249 151T315 123Q336 123 353 129T382 148T402 178T409 215V531H570V0H419L413 109L442 121Q431 84 403 54T335 7T252 -10ZM188 601L130 651L274 780H370L514
651L456 601L307 686H337L188 601Z" />
<glyph unicode="&#xfc;" horiz-adv-x="643" d="M252 -10Q194 -10 152 15T88 88T65 203V531H226V227Q226 178 249 151T315 123Q336 123 353 129T382 148T402 178T409 215V531H570V0H419L413 109L442 121Q431 84 403 54T335 7T252 -10ZM442 631Q400 631 377 654T354
717Q354 755 378 779T442 803Q483 803 506 781T529 717Q529 680 506 656T442 631ZM201 631Q159 631 137 654T114 717Q114 755 137 779T201 803Q243 803 265 781T288 717Q288 680 265 656T201 631Z" />
<glyph unicode="&#xfd;" horiz-adv-x="621" d="M139 -230L260 54L262 -30L5 531H187L299 263Q308 244 316 220T328 175L305 162Q311 177 318 200T335 249L433 531H616L391 0L300 -230H139ZM233 589L185 663L363 804L437 699L233 589Z" />
<glyph unicode="&#xfe;" horiz-adv-x="657" d="M71 -220V740H233V413L200 423Q206 455 233 481T302 524T389 541Q457 541 510 506T593 409T623 265Q623 186 593 124T509 27T387 -9Q342 -9 301 8T232 54T196 116L233 130V-220H71ZM348 127Q384 127 410 144T451
192T466 265Q466 307 452 338T411 387T348 405Q312 405 285 388T243 339T228 265Q228 224 243 193T285 144T348 127Z" />
<glyph unicode="&#xff;" horiz-adv-x="621" d="M139 -230L260 54L262 -30L5 531H187L299 263Q308 244 316 220T328 175L305 162Q311 177 318 200T335 249L433 531H616L391 0L300 -230H139ZM431 631Q389 631 366 654T343 717Q343 755 367 779T431 803Q472 803 495
781T518 717Q518 680 495 656T431 631ZM190 631Q148 631 126 654T103 717Q103 755 126 779T190 803Q232 803 254 781T277 717Q277 680 254 656T190 631Z" />
<glyph unicode="&#x2013;" horiz-adv-x="592" d="M56 219V357H536V219H56Z" />
<glyph unicode="&#x2014;" horiz-adv-x="931" d="M56 219V357H874V219H56Z" />
<glyph unicode="&#x2018;" horiz-adv-x="275" d="M147 431Q117 431 93 447T54 491T39 558Q39 589 51 619T86 677T138 724T205 754L251 697Q209 679 184 653T158 608Q158 597 165 587T186 566Q210 549 219 533T229 498Q229 467 206 449T147 431Z" />
<glyph unicode="&#x2019;" horiz-adv-x="275" d="M71 428L24 485Q66 502 92 528T118 573Q118 584 111 594T89 614Q65 632 56 648T47 683Q47 714 69 732T128 751Q159 751 183 735T221 691T236 624Q236 592 224 561T189 504T137 457T71 428Z" />
<glyph unicode="&#x201a;" horiz-adv-x="288" d="M85 -201L38 -144Q79 -125 103 -97T128 -50Q128 -40 123 -30T101 -6Q78 11 70 27T61 64Q61 96 84 113T142 131Q172 131 195 115T232 71T246 4Q246 -29 234 -61T200 -121T149 -169T85 -201Z" />
<glyph unicode="&#x201c;" horiz-adv-x="508" d="M147 682Q117 682 93 698T54 742T39 809Q39 840 51 870T86 928T138 975T205 1005L251 948Q209 930 184 904T158 859Q158 848 165 838T186 817Q210 800 219 784T229 749Q229 718 206 700T147 682ZM380 426Q350 426
326 442T287 486T272 553Q272 584 284 614T319 672T371 719T438 749L484 692Q442 674 417 648T391 603Q391 592 398 582T419 561Q443 544 452 528T462 493Q462 462 439 444T380 426Z" />
<glyph unicode="&#x201d;" horiz-adv-x="507" d="M71 428L24 485Q66 502 92 528T118 573Q118 584 111 594T89 614Q65 632 56 648T47 683Q47 714 69 732T128 751Q159 751 183 735T221 691T236 624Q236 592 224 561T189 504T137 457T71 428ZM303 428L256 485Q298
502 324 528T350 573Q350 584 343 594T321 614Q297 632 288 648T279 683Q279 714 301 732T360 751Q391 751 415 735T453 691T468 624Q468 592 456 561T421 504T369 457T303 428Z" />
<glyph unicode="&#x201e;" horiz-adv-x="517" d="M85 -201L38 -144Q79 -125 103 -97T128 -50Q128 -40 123 -30T101 -6Q78 11 70 27T61 64Q61 96 84 113T142 131Q172 131 195 115T232 71T246 4Q246 -29 234 -61T200 -121T149 -169T85 -201ZM314 -201L267 -144Q308
-125 332 -97T357 -50Q357 -40 352 -30T330 -6Q307 11 299 27T290 64Q290 96 313 113T371 131Q401 131 424 115T461 71T475 4Q475 -29 463 -61T429 -121T378 -169T314 -201Z" />
<glyph unicode="&#x2022;" horiz-adv-x="346" d="M173 214Q135 214 104 232T54 282T35 351Q35 390 53 421T103 471T173 490Q212 490 243 472T293 422T312 351Q312 313 294 282T244 233T173 214Z" />
<glyph unicode="&#x2039;" horiz-adv-x="314" d="M185 27L10 252V264L184 492L276 428L156 242L155 276L276 91L185 27Z" />
<glyph unicode="&#x203a;" horiz-adv-x="314" d="M130 29L37 93L158 279L157 245L38 430L129 494L304 269V257L130 29Z" />
</font>
</defs>
</svg>
